<svg xmlns="http://www.w3.org/2000/svg" width="20" height="20" viewBox="0 0 20 20"><defs><style>.a{fill:#7e7e7e;}.b,.d{fill:none;}.b{stroke:#707070;opacity:0;}.c{stroke:none;}</style></defs><g transform="translate(-30 -353)"><path class="a" d="M99.907,0a5.872,5.872,0,0,0-5.844,5.888,8.088,8.088,0,0,0,.9,3.529,14.9,14.9,0,0,0,1.951,2.95,20.411,20.411,0,0,0,2.828,2.8.269.269,0,0,0,.331,0,20.414,20.414,0,0,0,2.828-2.8,14.9,14.9,0,0,0,1.951-2.95,8.088,8.088,0,0,0,.9-3.529A5.872,5.872,0,0,0,99.907,0Zm0,3.648a2.24,2.24,0,1,1-2.223,2.24A2.231,2.231,0,0,1,99.907,3.648Z" transform="translate(-59.907 355.37)"/><g class="b" transform="translate(30 353)"><rect class="c" width="20" height="20"/><rect class="d" x="0.5" y="0.5" width="19" height="19"/></g></g></svg>